<svg xmlns="http://www.w3.org/2000/svg" version="1.1" xmlns:xlink="http://www.w3.org/1999/xlink" xmlns:svgjs="http://svgjs.dev/svgjs" width="1000" height="1000" viewBox="0 0 1000 1000"><rect width="1000" height="1000" fill="#ffffff"></rect><g transform="matrix(0.7,0,0,0.7,149.57575757575756,282.1265587044535)"><svg viewBox="0 0 396 247" data-background-color="#ffffff" preserveAspectRatio="xMidYMid meet" height="623" width="1000" xmlns="http://www.w3.org/2000/svg" xmlns:xlink="http://www.w3.org/1999/xlink"><g id="tight-bounds" transform="matrix(1,0,0,1,0.2400000000000091,-0.09999999999999432)"><svg viewBox="0 0 395.52 247.2" height="247.2" width="395.52"><g><svg></svg></g><g><svg viewBox="0 0 395.52 247.2" height="247.2" width="395.52"><g transform="matrix(1,0,0,1,39.55199999999999,74.91218250575074)"><svg viewBox="0 0 316.416 97.3756349884985" height="97.3756349884985" width="316.416"><g><svg viewBox="0 0 316.416 97.3756349884985" height="97.3756349884985" width="316.416"><g><svg viewBox="0 0 316.416 97.3756349884985" height="97.3756349884985" width="316.416"><g><svg viewBox="0 0 316.416 97.3756349884985" height="97.3756349884985" width="316.416"><g><svg viewBox="0 0 316.416 97.3756349884985" height="97.3756349884985" width="316.416"><g><svg viewBox="0 0 316.416 59.06745147522731" height="59.06745147522731" width="316.416"><g transform="matrix(1,0,0,1,0,0)"><svg width="316.416" viewBox="0.08000000566244125 -34.400001525878906 215.5399932861328 40.2400016784668" height="59.06745147522731" data-palette-color="#fce44d"><path d="M6.68-20.44L6.68-20.44Q6.68-17.6 8.36-17.32L8.36-17.32Q8.24-16.76 7.44-16.76L7.44-16.76Q5.8-16.76 5.12-18.72L5.12-18.72Q4.8-19.64 4.8-20.96 4.8-22.28 5.84-24.16L5.84-24.16Q8.24-28.52 14.64-29.8L14.64-29.8Q16.92-30.24 19.64-30.24 22.36-30.24 24.58-30.88 26.8-31.52 27.86-32.32 28.92-33.12 29.86-33.76 30.8-34.4 31.42-34.4 32.04-34.4 32.04-33.84L32.04-33.84Q32.04-32.52 29.44-31.16 26.84-29.8 22.68-29.4L22.68-29.4Q20.96-28.48 20-22.88L20-22.88Q18.92-16.44 18.2-12.36 17.48-8.28 16.5-5.38 15.52-2.48 14.28-0.26 13.04 1.96 11.02 3.3 9 4.64 6.3 4.64 3.6 4.64 1.92 2.88L1.92 2.88Q0.08 0.96 0.08-2.32L0.08-2.32Q0.08-7.8 3-10.72L3-10.72Q4.76-12.48 6.92-12.48L6.92-12.48Q7.44-12.48 7.78-12.24 8.12-12 8.24-11.52L8.24-11.52Q4.84-11.52 2.72-8L2.72-8Q1.16-5.4 1.16-2.6L1.16-2.6Q1.16 2 4.32 3L4.32 3Q5.04 3.24 5.88 3.24L5.88 3.24Q8.36 3.24 10.22 1.2 12.08-0.84 13.06-3.96 14.04-7.08 14.94-10.98 15.84-14.88 16.44-18.4 17.04-21.92 18.06-24.98 19.08-28.04 20.4-29.28L20.4-29.28 19.6-29.28Q11.4-29.28 8.16-24.68L8.16-24.68Q6.68-22.6 6.68-20.44ZM37.64 3L37.64 3Q38.12 3 38.54 2.58 38.96 2.16 39.32 1.28L39.32 1.28Q39.36 0.92 39.8 0.92 40.24 0.92 40.14 1.28 40.04 1.64 39.82 2.16 39.6 2.68 38.9 3.54 38.2 4.4 37.48 4.4L37.48 4.4Q35.88 4.4 35 2.4L35 2.4Q34.08 0.4 34.08-2.54 34.08-5.48 34.52-8.6L34.52-8.6 34.16-8.6Q29.32-0.16 26.72-0.16L26.72-0.16Q23.64-0.16 23.64-4.86 23.64-9.56 25.64-14.24L25.64-14.24Q27.84-19.4 29.52-19.4L29.52-19.4Q30.24-19.4 30.24-18.52L30.24-18.52Q28.56-14.08 27.36-9.88 26.16-5.68 26.16-3.62 26.16-1.56 27.12-1.56L27.12-1.56Q27.8-1.56 29.14-3.2 30.48-4.84 31.88-7.2L31.88-7.2Q34.88-12.28 36.46-15.84 38.04-19.4 39.72-19.4L39.72-19.4Q40.52-19.4 40.52-18.52L40.52-18.52Q37.96-13.44 36.88-6.4L36.88-6.4Q36.44-3.6 36.44-0.92L36.44-0.92Q36.44 3 37.64 3ZM58.04-27.38Q60.44-28.4 62.88-29.02 65.31-29.64 66.31-29.64L66.31-29.64Q67.64-29.64 67.68-29.16L67.68-29.16 67.72-29Q66.88-29 66.28-28.34 65.68-27.68 65.12-25.72L65.12-25.72Q64.48-23.28 64-20.54 63.52-17.8 63.46-17.52 63.4-17.24 63.34-16.82 63.28-16.4 63.2-16.04L63.2-16.04Q70.24-16.64 72.56-16.76L72.56-16.76Q73.84-23.4 75.75-27.78 77.68-32.16 79.4-32.16L79.4-32.16Q80.03-32.16 80.03-31.52L80.03-31.52Q77.4-25.72 75.98-19.82 74.56-13.92 73.78-8.34 73-2.76 73 1.12L73 1.12Q73 1.68 72.44 1.68L72.44 1.68Q71.04 1.68 71.04-1.52L71.04-1.52Q71.04-8.28 72.31-15.76L72.31-15.76Q68.44-15.32 66.26-15.02 64.08-14.72 62.96-14.6L62.96-14.6Q61.24-5.16 59.12-1.52L59.12-1.52Q58.12 0.2 56.84 1.68L56.84 1.68Q54.24 4.64 50 4.64L50 4.64Q46.88 4.64 44.98 2.88 43.08 1.12 42.8-1.4L42.8-1.4Q42.72-2.24 42.72-3.5 42.72-4.76 43.18-6.86 43.64-8.96 45.38-10.72 47.12-12.48 49.36-12.48L49.36-12.48Q49.96-12.48 50.32-12.12 50.68-11.76 50.8-11.04L50.8-11.04Q47.16-11.04 45.12-7.48L45.12-7.48Q43.76-5.16 43.76-2.84L43.76-2.84Q43.76-1.6 44.16-0.32L44.16-0.32Q45.28 3.24 49.4 3.24L49.4 3.24Q53.4 3.24 55.76-0.96L55.76-0.96Q57.24-3.64 58.04-6.32L58.04-6.32Q59.16-10.16 60-14.24L60-14.24Q58.72-14.08 57.72-14.08 56.72-14.08 56.56-15.08L56.56-15.08Q56.4-15.84 56.88-16L56.88-16Q56.92-16.04 57-16.04L57-16.04Q57.16-15.76 57.94-15.76 58.72-15.76 60.36-15.88L60.36-15.88Q61.12-19.52 61.56-21.38 62-23.24 62.88-25.46 63.76-27.68 64.76-28.64L64.76-28.64Q61.08-27.96 57.88-26.08L57.88-26.08Q56.24-25.12 55.2-23.72 54.16-22.32 54.16-20.8L54.16-20.8Q54.16-19.76 54.96-19.76L54.96-19.76Q54.8-19.2 54.08-19.2 53.36-19.2 52.82-19.76 52.28-20.32 52.28-21.32L52.28-21.32Q52.28-23.08 53.96-24.72 55.64-26.36 58.04-27.38ZM89.15-19.4L89.15-19.4Q92.19-19.4 92.19-15.84L92.19-15.84Q92.19-13.8 90.83-11.56L90.83-11.56Q88.51-7.84 84.67-7.84L84.67-7.84Q84.07-7.84 83.67-8.04 83.27-8.24 83.07-8.64L83.07-8.64Q85.91-8.64 88.27-11.92L88.27-11.92Q90.19-14.56 90.19-16.76L90.19-16.76Q90.19-18.4 88.87-18.4L88.87-18.4Q86.23-18.4 83.95-14.28L83.95-14.28Q81.51-9.8 81.51-5.08L81.51-5.08Q81.51-1.08 83.79-0.28L83.79-0.28Q84.23-0.12 84.91-0.12 85.59-0.12 86.35-0.46 87.11-0.8 87.63-1.28L87.63-1.28Q88.67-2.24 89.35-3.4L89.35-3.4Q89.51-3.72 89.95-3.72L89.95-3.72Q90.67-3.72 90.63-3.48L90.63-3.48Q90.51-3.04 89.73-2 88.95-0.96 88.29-0.34 87.63 0.28 86.57 0.78 85.51 1.28 84.43 1.28L84.43 1.28Q80.19 1.28 79.03-2.72L79.03-2.72Q78.67-4.08 78.67-5.52L78.67-5.52Q78.67-8.2 79.91-11.36L79.91-11.36Q81.87-16.16 85.31-18.28L85.31-18.28Q87.19-19.4 89.15-19.4ZM97.63 0L97.63 0Q94.27 0 94.27-5.16L94.27-5.16Q94.27-8.16 95.79-11.76L95.79-11.76Q97.87-16.8 101.27-18.6L101.27-18.6Q102.75-19.4 103.95-19.4 105.15-19.4 105.79-18.98 106.43-18.56 106.63-18.12L106.63-18.12 106.83-17.68Q106.71-17 106.11-17 105.51-17 105.25-17.66 104.99-18.32 104.03-18.32L104.03-18.32Q101.43-18.32 99.39-13.72L99.39-13.72Q97.03-8.52 97.03-3.88L97.03-3.88Q97.03-1.44 98.03-1.44L98.03-1.44Q98.83-1.44 100.37-3.42 101.91-5.4 103.55-8.24L103.55-8.24Q105.79-12.16 107.51-15.4L107.51-15.4Q108.95-21.64 111.01-26.3 113.07-30.96 114.43-30.96L114.43-30.96Q115.11-30.96 115.11-30.28L115.11-30.28Q114.15-28.2 112.85-24.6 111.55-21 110.65-17.74 109.75-14.48 109.01-9.96 108.27-5.44 108.27-1.44L108.27-1.44Q108.27 4.52 110.87 4.52L110.87 4.52Q111.87 4.52 112.73 3.66 113.59 2.8 113.95 1.96L113.95 1.96Q114.15 1.52 114.67 1.72L114.67 1.72Q114.87 1.8 114.83 1.96L114.83 1.96Q114.59 2.48 114.23 3.16 113.87 3.84 112.81 4.84 111.75 5.84 110.67 5.84L110.67 5.84Q105.91 5.84 105.91-3.12L105.91-3.12Q105.91-6.28 106.47-9.88L106.47-9.88 105.95-9.88Q100.31 0 97.63 0ZM118.63 0.36L118.63 0.36Q113.71 0.36 113.71-6.4L113.71-6.4Q113.71-10.2 115.63-14L115.63-14Q118.07-18.8 121.43-18.8L121.43-18.8Q121.91-18.8 122.23-18.56 122.55-18.32 122.67-17.84L122.67-17.84Q120.15-17.84 118.31-13.8 116.47-9.76 116.47-5.84L116.47-5.84Q116.47-1.08 119.07-1.08L119.07-1.08Q120.55-1.08 122.15-3.34 123.75-5.6 124.81-9.28 125.87-12.96 125.87-16.68L125.87-16.68 125.87-17.16Q124.63-17.96 123.83-19.16 123.03-20.36 123.03-20.92 123.03-21.48 123.53-21.98 124.03-22.48 124.55-22.48L124.55-22.48Q125.31-22.48 126.03-21.12 126.75-19.76 127.03-18.04L127.03-18.04Q128.27-17.2 129.21-17.2 130.15-17.2 130.71-17.52L130.71-17.52Q130.71-16.96 130.31-16.52 129.91-16.08 129.07-16.08 128.23-16.08 127.15-16.48L127.15-16.48Q127.11-12.64 125.99-8.76 124.87-4.88 122.87-2.26 120.87 0.36 118.63 0.36ZM132.99-6.48L133.35-6.48Q138.51-19.24 143.39-19.24L143.39-19.24Q145.43-19.24 145.43-17.28L145.43-17.28Q145.15-16.36 144.71-14.86 144.27-13.36 143.53-9.48 142.79-5.6 142.79-2.68L142.79-2.68Q142.79 1.56 144.03 1.56L144.03 1.56Q144.51 1.56 144.95 1.18 145.39 0.8 145.55 0.8L145.55 0.8Q146.11 0.8 145.55 1.68L145.55 1.68Q145.35 1.96 144.81 2.44 144.27 2.92 143.71 2.92L143.71 2.92Q142.19 2.92 141.33 0.74 140.47-1.44 140.47-4.92L140.47-4.92Q140.47-10.44 142.19-17.04L142.19-17.04Q142.35-17.56 141.87-17.56L141.87-17.56Q141.55-17.56 141.15-17.24L141.15-17.24Q139.23-15.56 137.11-11.68 134.99-7.8 133.79-4.74 132.59-1.68 132.59-1.18 132.59-0.68 132.03-0.68L132.03-0.68Q130.75-0.68 130.75-3.84L130.75-3.84Q130.75-9.8 131.97-14.64 133.19-19.48 134.91-19.48L134.91-19.48Q135.63-19.48 135.63-18.6L135.63-18.6Q133.79-12.64 132.99-6.48L132.99-6.48ZM149.22-3.4L149.22-3.4Q149.22-9.32 150.44-13.96 151.66-18.6 153.54-18.6L153.54-18.6Q154.46-18.6 154.46-17.6L154.46-17.6Q154.06-16.56 153.46-14.84 152.86-13.12 151.88-8.62 150.9-4.12 150.9-0.6L150.9-0.6Q150.9-0.04 150.3-0.04L150.3-0.04Q149.22-0.04 149.22-3.4ZM155.06-23.04L154.58-22.36Q153.74-22.36 153.74-23.96L153.74-23.96Q153.74-24.92 154.26-25.98 154.78-27.04 155.74-27.04L155.74-27.04Q156.54-27.04 156.54-26.12L156.54-26.12Q156.54-25.2 155.06-23.04L155.06-23.04ZM159.74-1.36L159.74-1.36Q159.74 1.44 161.54 1.44L161.54 1.44Q163.22 1.44 164.68-1.32 166.14-4.08 166.14-8.28L166.14-8.28Q166.14-10.32 165.4-14.04 164.66-17.76 164.66-18.9 164.66-20.04 164.74-20.4L164.74-20.4Q164.22-19.56 161.74-14.82 159.26-10.08 157.34-7.32L157.34-7.32Q157.18-7.16 156.9-7.22 156.62-7.28 156.44-7.46 156.26-7.64 156.26-7.72 156.26-7.8 156.3-7.84L156.3-7.84Q158.18-10.56 160.68-15.34 163.18-20.12 164.86-22.48 166.54-24.84 168.18-24.84L168.18-24.84Q169.02-24.84 169.02-24.12L169.02-24.12Q169.02-23.64 168.34-22.84L168.34-22.84Q166.18-20.4 166.18-17.84L166.18-17.84Q166.18-16.32 167.34-11.98 168.5-7.64 168.5-5.68L168.5-5.68Q168.5-2.16 166.54 0.3 164.58 2.76 162.1 2.76L162.1 2.76Q158.58 2.76 158.58-1.28L158.58-1.28Q158.58-4.32 160.44-7.64 162.3-10.96 164.18-12.12L164.18-12.12Q164.54-12.36 164.64-11.84 164.74-11.32 164.5-11.16L164.5-11.16Q162.38-9.96 160.82-6.04L160.82-6.04Q159.74-3.28 159.74-1.36ZM181.86-4.88L181.86-4.88Q181.86-9.8 183.66-17.32L183.66-17.32Q183.78-17.72 183.42-17.68L183.42-17.68Q183.14-17.64 182.9-17.44L182.9-17.44Q181.14-15.96 179.02-11.96 176.9-7.96 175.62-4.66 174.34-1.36 174.34-0.8L174.34-0.8Q174.34-0.32 173.74-0.32L173.74-0.32Q172.54-0.32 172.54-3.48L172.54-3.48Q172.54-9.48 173.74-14.3 174.94-19.12 176.66-19.12L176.66-19.12Q177.42-19.12 177.42-18.28L177.42-18.28Q175.58-12.48 174.78-6.36L174.78-6.36 175.14-6.36Q180.42-19.56 184.86-19.56L184.86-19.56Q186.78-19.56 186.78-17.68L186.78-17.68Q184.9-12.08 184.06-6.64L184.06-6.64 184.38-6.64Q185.7-9.44 187.04-11.74 188.38-14.04 190.18-16.02 191.98-18 193.42-18L193.42-18Q195.34-18 195.34-16.16L195.34-16.16Q193.26-9.24 193.26-2.68L193.26-2.68Q193.26 1.56 194.54 1.56L194.54 1.56Q194.98 1.56 195.42 1.18 195.86 0.8 196.02 0.8L196.02 0.8Q196.58 0.8 195.98 1.68L195.98 1.68Q195.82 1.96 195.28 2.44 194.74 2.92 194.22 2.92L194.22 2.92Q192.66 2.92 191.8 0.74 190.94-1.44 190.94-4.92L190.94-4.92Q190.94-11.04 192.22-15.68L192.22-15.68Q192.3-15.96 192.02-15.96L192.02-15.96Q191.78-15.92 191.54-15.72L191.54-15.72Q189.26-13.76 186.46-8.46 183.66-3.16 183.66-2.2L183.66-2.2Q183.66-1.72 183.02-1.72L183.02-1.72Q181.86-1.72 181.86-4.88ZM203.53 0.36L203.53 0.36Q198.62 0.36 198.62-6.4L198.62-6.4Q198.62-10.2 200.53-14L200.53-14Q202.97-18.8 206.34-18.8L206.34-18.8Q206.81-18.8 207.13-18.56 207.46-18.32 207.57-17.84L207.57-17.84Q205.06-17.84 203.22-13.8 201.38-9.76 201.38-5.84L201.38-5.84Q201.38-1.08 203.97-1.08L203.97-1.08Q205.46-1.08 207.06-3.34 208.66-5.6 209.72-9.28 210.78-12.96 210.78-16.68L210.78-16.68 210.78-17.16Q209.53-17.96 208.74-19.16 207.94-20.36 207.94-20.92 207.94-21.48 208.44-21.98 208.94-22.48 209.46-22.48L209.46-22.48Q210.22-22.48 210.94-21.12 211.66-19.76 211.94-18.04L211.94-18.04Q213.18-17.2 214.12-17.2 215.06-17.2 215.62-17.52L215.62-17.52Q215.62-16.96 215.22-16.52 214.81-16.08 213.97-16.08 213.13-16.08 212.06-16.48L212.06-16.48Q212.01-12.64 210.9-8.76 209.78-4.88 207.78-2.26 205.78 0.36 203.53 0.36Z" opacity="1" transform="matrix(1,0,0,1,0,0)" fill="#000000" class="undefined-text-0" data-fill-palette-color="primary" id="text-0"></path></svg></g></svg></g><g transform="matrix(1,0,0,1,0,73.01185914969307)"><svg viewBox="0 0 316.416 24.363775838805434" height="24.363775838805434" width="316.416"><g transform="matrix(1,0,0,1,0,0)"><svg width="316.416" viewBox="1.5099999904632568 -41.060001373291016 542.7799682617188 41.790000915527344" height="24.363775838805434" data-palette-color="#f3a83c"><path d="M1.51-36.04L11.04-35.99Q13.92-35.99 17.48-35.57 21.04-35.16 24.66-34.25 28.27-33.35 31.69-31.84 35.11-30.32 37.74-28.15 40.38-25.98 41.99-23.05 43.6-20.12 43.6-16.36L43.6-16.36Q43.6-12.26 41.77-9.45 39.94-6.64 36.94-4.83 33.94-3.03 30.13-2.03 26.32-1.03 22.36-0.59 18.41-0.15 14.7-0.07 10.99 0 8.15 0L8.15 0 2.29 0Q2.44-0.29 2.54-1.46 2.64-2.64 2.71-4.27 2.78-5.91 2.83-7.81 2.88-9.72 2.91-11.4 2.93-13.09 2.93-14.38 2.93-15.67 2.93-16.16L2.93-16.16Q2.93-16.7 2.93-18.33 2.93-19.97 2.88-22.09 2.83-24.22 2.76-26.61 2.69-29 2.51-31.03 2.34-33.06 2.1-34.45 1.86-35.84 1.51-36.04L1.51-36.04ZM10.3-4.35L10.3-4.35Q10.94-4.35 11.57-4.32 12.21-4.3 12.84-4.3L12.84-4.3Q14.7-4.3 17.16-4.44 19.63-4.59 22.27-5.03 24.9-5.47 27.44-6.25 29.98-7.03 31.98-8.35 33.98-9.67 35.23-11.55 36.47-13.43 36.47-16.02L36.47-16.02Q36.47-18.85 35.38-21.09 34.28-23.34 32.45-25.07 30.62-26.81 28.2-28 25.78-29.2 23.17-29.98 20.56-30.76 17.92-31.1 15.28-31.45 12.99-31.45L12.99-31.45Q12.35-31.45 11.72-31.42 11.08-31.4 10.45-31.35L10.45-31.35Q10.21-27.39 10.16-23.49 10.11-19.58 10.11-15.63L10.11-15.63Q10.11-12.79 10.13-9.99 10.16-7.18 10.3-4.35ZM48.14-22.85L48.14-22.85 56.74-22.8Q56.49-22.75 56.37-22.39 56.25-22.02 56.15-21.83L56.15-21.83Q55.81-20.61 55.64-18.87 55.47-17.14 55.39-15.26 55.32-13.38 55.3-11.62 55.27-9.86 55.27-8.54L55.27-8.54Q55.27-8.11 55.27-6.76 55.27-5.42 55.34-3.91 55.42-2.39 55.56-1.15 55.71 0.1 56 0.39L56 0.39 47.36 0.39Q47.6 0.05 47.85-1.22 48.09-2.49 48.26-4.25 48.44-6.01 48.58-8.03 48.73-10.06 48.85-11.89 48.97-13.72 49.02-15.16 49.07-16.6 49.07-17.14L49.07-17.14Q49.07-17.43 49.07-18.31 49.07-19.19 48.97-20.14 48.87-21.09 48.68-21.9 48.48-22.71 48.14-22.85ZM52.39-34.67L52.39-34.67Q53.02-34.67 53.81-34.47 54.59-34.28 55.25-33.91 55.91-33.54 56.35-32.93 56.78-32.32 56.78-31.54L56.78-31.54Q56.78-30.76 56.35-30.18 55.91-29.59 55.25-29.22 54.59-28.86 53.81-28.66 53.02-28.47 52.39-28.47L52.39-28.47Q51.71-28.47 50.95-28.66 50.19-28.86 49.53-29.22 48.87-29.59 48.44-30.18 48-30.76 48-31.54L48-31.54Q48-32.32 48.44-32.93 48.87-33.54 49.53-33.91 50.19-34.28 50.95-34.47 51.71-34.67 52.39-34.67ZM80.85-14.4Q81.15-15.23 81.34-16.14 81.54-17.04 81.54-17.97L81.54-17.97Q81.54-20.02 80.44-21.02 79.34-22.02 77.29-22.02L77.29-22.02Q76.12-22.02 74.53-21.75 72.94-21.48 71.53-20.85 70.11-20.21 69.11-19.19 68.11-18.16 68.11-16.65L68.11-16.65Q68.11-15.53 69.21-14.77 70.31-14.01 71.77-13.55 73.24-13.09 74.73-12.84 76.22-12.6 77-12.45L77-12.45Q78.22-12.21 80.1-11.84 81.98-11.47 83.74-10.77 85.49-10.06 86.76-9.01 88.03-7.96 88.03-6.35L88.03-6.35Q88.03-4.54 86.62-3.32 85.2-2.1 83.22-1.37 81.25-0.63 79.1-0.32 76.95 0 75.53 0L75.53 0Q72.6 0 69.72-0.42 66.84-0.83 64.06-1.81L64.06-1.81Q63.72-1.95 62.93-2.27 62.15-2.59 61.3-2.95 60.44-3.32 59.71-3.61 58.98-3.91 58.78-3.91L58.78-3.91Q58.88-3.96 59.47-4.49 60.05-5.03 60.71-5.69 61.37-6.35 61.91-6.93 62.45-7.52 62.5-7.67L62.5-7.67Q64.99-5.81 68.04-4.93 71.09-4.05 74.16-4.05L74.16-4.05Q74.51-4.05 75.48-4.13 76.46-4.2 77.51-4.39 78.56-4.59 79.39-4.93 80.22-5.27 80.22-5.81L80.22-5.81Q80.22-6.59 78.85-7.08 77.49-7.57 75.41-8.01 73.33-8.45 70.94-8.98 68.55-9.52 66.47-10.38 64.4-11.23 63.03-12.5 61.66-13.77 61.66-15.77L61.66-15.77Q61.66-18.7 63.25-20.78 64.84-22.85 67.23-24.15 69.62-25.44 72.41-26.03 75.19-26.61 77.63-26.61L77.63-26.61Q79.63-26.61 81.49-26.29 83.34-25.98 84.76-25.15 86.18-24.32 87.03-22.85 87.89-21.39 87.89-19.04L87.89-19.04Q87.89-17.87 87.71-16.7 87.54-15.53 87.3-14.4L87.3-14.4 80.85-14.4ZM113.32-41.06L113.32-41.06Q115.67-41.06 117.69-40.6 119.72-40.14 121.18-39.04 122.65-37.94 123.5-36.16 124.36-34.38 124.36-31.79L124.36-31.79Q124.36-30.62 124.21-29.44 124.06-28.27 123.82-27.1L123.82-27.1Q123.72-26.56 123.58-26 123.43-25.44 123.43-24.9L123.43-24.9 123.43-24.76 115.72-26.22Q116.01-26.66 116.2-27.29 116.4-27.93 116.52-28.64 116.64-29.35 116.72-30.03 116.79-30.71 116.79-31.25L116.79-31.25Q116.79-33.89 115.54-35.47 114.3-37.06 111.52-37.06L111.52-37.06Q109.37-37.06 107.71-36.04 106.05-35.01 104.9-33.4 103.75-31.79 103.14-29.79 102.53-27.78 102.53-25.88L102.53-25.88Q102.53-24.76 102.51-23.66 102.48-22.56 102.48-21.44L102.48-21.44Q104.05-21.48 105.66-21.51 107.27-21.53 108.88-21.63L108.88-21.63Q109.71-21.68 110.69-21.73 111.66-21.78 112.49-22.02L112.49-22.02 112.35-17.09Q111.96-17.24 110.59-17.33 109.22-17.43 107.61-17.48 106-17.53 104.53-17.53 103.07-17.53 102.43-17.53L102.43-17.53 102.43-12.65Q102.43-12.26 102.43-11.25 102.43-10.25 102.46-8.96 102.48-7.67 102.51-6.25 102.53-4.83 102.58-3.61 102.63-2.39 102.73-1.54 102.82-0.68 102.97-0.49L102.97-0.49 95.11-0.49Q95.31-0.68 95.4-1.64 95.5-2.59 95.55-3.74 95.6-4.88 95.6-5.93 95.6-6.98 95.6-7.37L95.6-7.37Q95.6-12.4 95.45-17.48L95.45-17.48Q94.08-17.48 92.67-17.5 91.25-17.53 89.93-17.24L89.93-17.24 89.79-21.68Q90.28-21.53 91.01-21.46 91.74-21.39 92.55-21.36 93.35-21.34 94.11-21.34 94.87-21.34 95.4-21.34L95.4-21.34Q95.35-22.07 95.31-22.78 95.26-23.49 95.26-24.17L95.26-24.17Q95.26-27.93 96.67-31.35L96.67-31.35Q97.8-33.98 99.5-35.84 101.21-37.7 103.36-38.87 105.51-40.04 108.02-40.55 110.54-41.06 113.32-41.06ZM124.06-18.55L124.06-18.55Q125.23-19.53 126.77-20.41 128.31-21.29 129.99-21.95 131.68-22.61 133.41-23 135.15-23.39 136.66-23.39L136.66-23.39 136.66-19.19Q135.1-19.19 133.19-18.51 131.29-17.82 129.46-16.75 127.63-15.67 126.16-14.31 124.7-12.94 124.01-11.52L124.01-11.52Q124.01-11.18 124.04-10.25 124.06-9.33 124.09-8.11 124.11-6.88 124.16-5.54 124.21-4.2 124.31-3.03 124.4-1.86 124.5-1.03 124.6-0.2 124.75 0L124.75 0 116.84 0Q117.03-0.1 117.18-1.05 117.32-2 117.4-3.37 117.47-4.74 117.54-6.32 117.62-7.91 117.64-9.38 117.67-10.84 117.67-11.91 117.67-12.99 117.67-13.33L117.67-13.33Q117.67-13.77 117.67-15.19 117.67-16.6 117.62-18.16 117.57-19.73 117.47-21.07 117.37-22.41 117.18-22.71L117.18-22.71 124.4-22.71Q124.31-22.41 124.26-21.85 124.21-21.29 124.16-20.65 124.11-20.02 124.09-19.43 124.06-18.85 124.06-18.55ZM167.42-23.78Q167.22-23.44 167.05-22.31 166.88-21.19 166.74-19.65 166.59-18.12 166.49-16.31 166.39-14.5 166.32-12.87 166.25-11.23 166.22-9.94 166.2-8.64 166.2-8.06L166.2-8.06Q166.2-7.57 166.2-6.32 166.2-5.08 166.32-3.76 166.44-2.44 166.66-1.37 166.88-0.29 167.32-0.1L167.32-0.1 158.73-0.15 158.92-2.49Q157.07-1.17 154.87-0.32 152.67 0.54 150.38 0.54L150.38 0.54Q148.08 0.54 145.96-0.02 143.84-0.59 142.22-1.76 140.61-2.93 139.64-4.76 138.66-6.59 138.66-9.18L138.66-9.18Q138.66-12.45 138.98-15.67 139.29-18.9 139.29-22.17L139.29-22.17Q139.29-22.71 139.27-23.24 139.25-23.78 139.15-24.32L139.15-24.32 147.4-24.32Q146.91-23.49 146.67-21.68 146.42-19.87 146.3-17.82 146.18-15.77 146.15-13.84 146.13-11.91 146.13-10.84L146.13-10.84Q146.13-8.98 146.42-7.76 146.72-6.54 147.42-5.81 148.13-5.08 149.35-4.79 150.57-4.49 152.43-4.49L152.43-4.49Q153.45-4.49 154.41-4.86 155.36-5.22 156.24-5.81 157.12-6.4 157.85-7.13 158.58-7.86 159.17-8.59L159.17-8.59Q159.26-10.74 159.31-12.84 159.36-14.94 159.36-17.09L159.36-17.09Q159.36-17.53 159.36-18.53 159.36-19.53 159.31-20.61 159.26-21.68 159.14-22.58 159.02-23.49 158.83-23.78L158.83-23.78 167.42-23.78ZM183.38-17.63Q183.29-15.14 183.19-12.62 183.09-10.11 183.09-7.62L183.09-7.62Q183.09-6.79 183.43-6.2 183.77-5.62 184.34-5.25 184.9-4.88 185.61-4.74 186.31-4.59 187.05-4.59L187.05-4.59Q187.97-4.59 188.88-4.74 189.78-4.88 190.66-5.13L190.66-5.13 189.88 0.1Q187.05 0.1 184.56-0.07 182.07-0.24 180.21-1.12 178.35-2 177.28-3.93 176.21-5.86 176.21-9.38L176.21-9.38Q176.21-11.43 176.33-13.5 176.45-15.58 176.65-17.63L176.65-17.63 169.42-17.58 169.76-22.36Q171.52-22.22 173.32-22.19 175.13-22.17 176.94-22.17L176.94-22.17Q177.04-23.58 177.08-24.93 177.13-26.27 177.13-27.69L177.13-27.69Q177.13-27.98 177.13-28.86 177.13-29.74 177.04-30.69 176.94-31.64 176.74-32.42 176.55-33.2 176.21-33.35L176.21-33.35 185.19-33.2Q184.99-33.2 184.9-32.91 184.8-32.62 184.7-32.47L184.7-32.47Q184.41-31.54 184.24-30.22 184.07-28.91 183.94-27.47 183.82-26.03 183.75-24.68 183.68-23.34 183.63-22.31L183.63-22.31Q185.29-22.41 187-22.49 188.71-22.56 190.37-22.95L190.37-22.95 190.37-17.68 183.38-17.63ZM221.86 0.59L212.82 0.59Q213.65 0.34 213.85-0.51 214.05-1.37 214.09-2.05L214.09-2.05Q211.9-1.37 209.65-1.03 207.4-0.68 205.16-0.68L205.16-0.68Q203.69-0.68 201.67-0.93 199.64-1.17 197.81-1.86 195.98-2.54 194.68-3.76 193.39-4.98 193.39-6.98L193.39-6.98Q193.39-8.69 194.64-9.91 195.88-11.13 197.83-11.94 199.79-12.74 202.23-13.18 204.67-13.62 207.01-13.87 209.36-14.11 211.41-14.16 213.46-14.21 214.63-14.26L214.63-14.26Q214.63-14.94 214.66-15.58 214.68-16.21 214.68-16.89L214.68-16.89Q214.68-18.12 214.24-19.02 213.8-19.92 213.04-20.51 212.29-21.09 211.26-21.36 210.24-21.63 209.11-21.63L209.11-21.63Q208.04-21.63 206.79-21.34 205.55-21.04 204.43-20.46 203.3-19.87 202.47-18.97 201.64-18.07 201.45-16.89L201.45-16.89 195.3-17.72Q196.17-19.97 197.74-21.53 199.3-23.1 201.28-24.07 203.25-25.05 205.5-25.51 207.75-25.98 209.99-25.98L209.99-25.98Q212.14-25.98 214.17-25.44 216.19-24.9 217.78-23.8 219.37-22.71 220.32-21 221.27-19.29 221.27-16.94L221.27-16.94Q221.27-14.45 221.2-11.99 221.13-9.52 221.13-7.03L221.13-7.03Q221.13-6.59 221.13-5.44 221.13-4.3 221.2-3.05 221.27-1.81 221.42-0.76 221.56 0.29 221.86 0.59L221.86 0.59ZM200.03-6.98L200.03-6.98Q200.03-6.25 200.81-5.86 201.59-5.47 202.64-5.25 203.69-5.03 204.72-4.98 205.74-4.93 206.18-4.93L206.18-4.93Q208.23-4.93 210.33-5.22 212.43-5.52 214.39-6.15L214.39-6.15Q214.44-7.03 214.46-7.91 214.48-8.79 214.48-9.62L214.48-9.62 213.21-9.67Q212.78-9.67 211.63-9.64 210.48-9.62 209.02-9.55 207.55-9.47 205.96-9.3 204.38-9.13 203.06-8.84 201.74-8.54 200.89-8.08 200.03-7.62 200.03-6.98ZM242.6-36.04L252.13-35.99Q255.01-35.99 258.57-35.57 262.14-35.16 265.75-34.25 269.36-33.35 272.78-31.84 276.2-30.32 278.83-28.15 281.47-25.98 283.08-23.05 284.69-20.12 284.69-16.36L284.69-16.36Q284.69-12.26 282.86-9.45 281.03-6.64 278.03-4.83 275.03-3.03 271.22-2.03 267.41-1.03 263.45-0.59 259.5-0.15 255.79-0.07 252.08 0 249.25 0L249.25 0 243.39 0Q243.53-0.29 243.63-1.46 243.73-2.64 243.8-4.27 243.87-5.91 243.92-7.81 243.97-9.72 244-11.4 244.02-13.09 244.02-14.38 244.02-15.67 244.02-16.16L244.02-16.16Q244.02-16.7 244.02-18.33 244.02-19.97 243.97-22.09 243.92-24.22 243.85-26.61 243.78-29 243.61-31.03 243.43-33.06 243.19-34.45 242.95-35.84 242.6-36.04L242.6-36.04ZM251.39-4.35L251.39-4.35Q252.03-4.35 252.66-4.32 253.3-4.3 253.93-4.3L253.93-4.3Q255.79-4.3 258.25-4.44 260.72-4.59 263.36-5.03 265.99-5.47 268.53-6.25 271.07-7.03 273.07-8.35 275.08-9.67 276.32-11.55 277.57-13.43 277.57-16.02L277.57-16.02Q277.57-18.85 276.47-21.09 275.37-23.34 273.54-25.07 271.71-26.81 269.29-28 266.87-29.2 264.26-29.98 261.65-30.76 259.01-31.1 256.37-31.45 254.08-31.45L254.08-31.45Q253.44-31.45 252.81-31.42 252.17-31.4 251.54-31.35L251.54-31.35Q251.3-27.39 251.25-23.49 251.2-19.58 251.2-15.63L251.2-15.63Q251.2-12.79 251.22-9.99 251.25-7.18 251.39-4.35ZM302.51 0.73L302.51 0.73Q300.12 0.73 297.44 0.1 294.75-0.54 292.48-1.88 290.21-3.22 288.72-5.27 287.23-7.32 287.23-10.16L287.23-10.16Q287.23-13.62 288.6-16.36 289.97-19.09 292.26-20.97 294.56-22.85 297.58-23.85 300.61-24.85 303.93-24.85L303.93-24.85Q306.57-24.85 308.62-24 310.67-23.14 312.04-21.61 313.4-20.07 314.11-17.97 314.82-15.87 314.82-13.33L314.82-13.33Q314.82-10.89 314.09-8.64L314.09-8.64 293.73-8.64Q294.21-7.18 295.26-6.25 296.31-5.32 297.66-4.81 299-4.3 300.49-4.1 301.98-3.91 303.3-3.91L303.3-3.91Q304.13-3.91 305.52-4.03 306.91-4.15 308.37-4.42 309.84-4.69 311.13-5.08 312.43-5.47 313.06-6.05L313.06-6.05 315.45-1.86Q312.23-0.63 309.11 0.05 305.98 0.73 302.51 0.73ZM302.51-20.26L302.51-20.26Q301.05-20.26 299.61-19.68 298.17-19.09 297-18.14 295.82-17.19 294.95-15.89 294.07-14.6 293.68-13.23L293.68-13.23 307.64-13.23Q307.79-14.7 307.67-15.99 307.54-17.29 307.01-18.24 306.47-19.19 305.39-19.73 304.32-20.26 302.51-20.26ZM369.65-0.1L336.74 0Q337.03-0.29 337.23-1.88 337.42-3.47 337.54-5.71 337.67-7.96 337.69-10.57 337.71-13.18 337.71-15.58 337.71-17.97 337.69-19.82 337.67-21.68 337.67-22.41L337.67-22.41Q337.67-22.8 337.69-23.95 337.71-25.1 337.69-26.56 337.67-28.03 337.59-29.64 337.52-31.25 337.32-32.62 337.13-33.98 336.79-34.91 336.44-35.84 335.96-35.99L335.96-35.99 346.89-35.99Q346.26-35.99 345.84-34.86 345.43-33.74 345.18-32.03 344.94-30.32 344.82-28.25 344.7-26.17 344.65-24.27 344.6-22.36 344.6-20.87 344.6-19.38 344.6-18.85L344.6-18.85Q344.6-15.48 344.53-12.11 344.45-8.74 344.55-5.37L344.55-5.37Q346.21-5.27 347.63-5.25 349.04-5.22 350.41-5.22 351.78-5.22 353.22-5.22 354.66-5.22 356.32-5.22L356.32-5.22Q356.66-5.22 357.68-5.22 358.71-5.22 360.05-5.22 361.4-5.22 362.91-5.25 364.42-5.27 365.72-5.3 367.01-5.32 367.94-5.37 368.87-5.42 369.11-5.52L369.11-5.52 369.65-0.1ZM399.58 0.59L390.54 0.59Q391.37 0.34 391.57-0.51 391.76-1.37 391.81-2.05L391.81-2.05Q389.62-1.37 387.37-1.03 385.12-0.68 382.88-0.68L382.88-0.68Q381.41-0.68 379.39-0.93 377.36-1.17 375.53-1.86 373.7-2.54 372.4-3.76 371.11-4.98 371.11-6.98L371.11-6.98Q371.11-8.69 372.36-9.91 373.6-11.13 375.55-11.94 377.51-12.74 379.95-13.18 382.39-13.62 384.73-13.87 387.08-14.11 389.13-14.16 391.18-14.21 392.35-14.26L392.35-14.26Q392.35-14.94 392.37-15.58 392.4-16.21 392.4-16.89L392.4-16.89Q392.4-18.12 391.96-19.02 391.52-19.92 390.76-20.51 390.01-21.09 388.98-21.36 387.96-21.63 386.83-21.63L386.83-21.63Q385.76-21.63 384.51-21.34 383.27-21.04 382.15-20.46 381.02-19.87 380.19-18.97 379.36-18.07 379.17-16.89L379.17-16.89 373.01-17.72Q373.89-19.97 375.46-21.53 377.02-23.1 379-24.07 380.97-25.05 383.22-25.51 385.47-25.98 387.71-25.98L387.71-25.98Q389.86-25.98 391.89-25.44 393.91-24.9 395.5-23.8 397.09-22.71 398.04-21 398.99-19.29 398.99-16.94L398.99-16.94Q398.99-14.45 398.92-11.99 398.84-9.52 398.84-7.03L398.84-7.03Q398.84-6.59 398.84-5.44 398.84-4.3 398.92-3.05 398.99-1.81 399.14-0.76 399.28 0.29 399.58 0.59L399.58 0.59ZM377.75-6.98L377.75-6.98Q377.75-6.25 378.53-5.86 379.31-5.47 380.36-5.25 381.41-5.03 382.44-4.98 383.46-4.93 383.9-4.93L383.9-4.93Q385.95-4.93 388.05-5.22 390.15-5.52 392.11-6.15L392.11-6.15Q392.16-7.03 392.18-7.91 392.2-8.79 392.2-9.62L392.2-9.62 390.93-9.67Q390.49-9.67 389.35-9.64 388.2-9.62 386.74-9.55 385.27-9.47 383.68-9.3 382.1-9.13 380.78-8.84 379.46-8.54 378.61-8.08 377.75-7.62 377.75-6.98ZM461.49-35.99L461.49-35.99Q460.95-35.69 460.07-34.5 459.19-33.3 458.07-31.49 456.94-29.69 455.65-27.47 454.36-25.24 453.04-22.88 451.72-20.51 450.48-18.14 449.23-15.77 448.16-13.75 447.08-11.72 446.28-10.18 445.47-8.64 445.08-7.86L445.08-7.86 442.59-3.03Q442.2-2.25 441.81-1.49 441.42-0.73 440.93 0L440.93 0Q440.29 0.1 439.71 0.05 439.12 0 438.49 0L438.49 0 432.58 0Q432.04-1.03 431.02-3.05 429.99-5.08 428.65-7.69 427.31-10.3 425.69-13.31 424.08-16.31 422.45-19.34 420.81-22.36 419.2-25.22 417.59-28.08 416.2-30.35 414.81-32.62 413.73-34.13 412.66-35.64 412.07-35.99L412.07-35.99Q414.76-35.99 417.44-35.96 420.13-35.94 422.86-35.99L422.86-35.99Q422.72-35.89 422.69-35.72 422.67-35.55 422.67-35.4L422.67-35.4Q422.67-34.38 423.52-32.13 424.38-29.88 425.74-27 427.11-24.12 428.77-20.95 430.43-17.77 431.99-14.87 433.56-11.96 434.85-9.67 436.14-7.37 436.83-6.25L436.83-6.25Q437.46-7.37 438.78-9.67 440.1-11.96 441.66-14.87 443.22-17.77 444.88-20.95 446.54-24.12 447.89-27 449.23-29.88 450.11-32.13 450.99-34.38 450.99-35.4L450.99-35.4Q450.99-35.55 450.96-35.72 450.94-35.89 450.79-35.99L450.79-35.99Q453.48-35.94 456.14-35.96 458.8-35.99 461.49-35.99ZM457.77-22.85L457.77-22.85 466.37-22.8Q466.12-22.75 466-22.39 465.88-22.02 465.78-21.83L465.78-21.83Q465.44-20.61 465.27-18.87 465.1-17.14 465.02-15.26 464.95-13.38 464.93-11.62 464.9-9.86 464.9-8.54L464.9-8.54Q464.9-8.11 464.9-6.76 464.9-5.42 464.97-3.91 465.05-2.39 465.19-1.15 465.34 0.1 465.63 0.39L465.63 0.39 456.99 0.39Q457.24 0.05 457.48-1.22 457.72-2.49 457.89-4.25 458.07-6.01 458.21-8.03 458.36-10.06 458.48-11.89 458.6-13.72 458.65-15.16 458.7-16.6 458.7-17.14L458.7-17.14Q458.7-17.43 458.7-18.31 458.7-19.19 458.6-20.14 458.5-21.09 458.31-21.9 458.11-22.71 457.77-22.85ZM462.02-34.67L462.02-34.67Q462.66-34.67 463.44-34.47 464.22-34.28 464.88-33.91 465.54-33.54 465.98-32.93 466.42-32.32 466.42-31.54L466.42-31.54Q466.42-30.76 465.98-30.18 465.54-29.59 464.88-29.22 464.22-28.86 463.44-28.66 462.66-28.47 462.02-28.47L462.02-28.47Q461.34-28.47 460.58-28.66 459.82-28.86 459.16-29.22 458.5-29.59 458.07-30.18 457.63-30.76 457.63-31.54L457.63-31.54Q457.63-32.32 458.07-32.93 458.5-33.54 459.16-33.91 459.82-34.28 460.58-34.47 461.34-34.67 462.02-34.67ZM502.25 0L493.66 0Q493.9-0.63 493.98-1.64 494.05-2.64 494.05-3.32L494.05-3.32Q492-1.81 489.46-1.1 486.92-0.39 484.38-0.39L484.38-0.39Q481.94-0.39 479.3-1.1 476.67-1.81 474.47-3.22 472.27-4.64 470.83-6.76 469.39-8.89 469.39-11.72L469.39-11.72Q469.39-14.75 471.03-17.02 472.66-19.29 475.13-20.8 477.59-22.31 480.52-23.07 483.45-23.83 486.04-23.83L486.04-23.83Q488.09-23.83 490.12-23.34 492.15-22.85 493.95-21.73L493.95-21.73Q493.9-22.22 493.88-23.41 493.85-24.61 493.78-26.15 493.71-27.69 493.59-29.35 493.46-31.01 493.27-32.45 493.07-33.89 492.8-34.86 492.54-35.84 492.19-35.99L492.19-35.99 501.47-36.04Q501.13-35.79 500.93-34.67 500.74-33.54 500.67-32.18 500.59-30.81 500.57-29.57 500.54-28.32 500.54-27.83L500.54-27.83Q500.54-26.81 500.59-24.46 500.64-22.12 500.76-19.17 500.89-16.21 501.03-13.01 501.18-9.81 501.35-7.08 501.52-4.35 501.76-2.39 502.01-0.44 502.25 0L502.25 0ZM485.6-4.83L485.6-4.83Q486.68-4.83 488.17-5.25 489.65-5.66 490.97-6.45 492.29-7.23 493.22-8.3 494.15-9.38 494.15-10.69L494.15-10.69Q494.15-11.47 494.2-12.3 494.24-13.13 494.15-13.87L494.15-13.87Q493.95-15.19 493.17-16.16 492.39-17.14 491.29-17.77 490.19-18.41 488.92-18.73 487.65-19.04 486.43-19.04L486.43-19.04Q484.77-19.04 483.04-18.6 481.31-18.16 479.89-17.24 478.47-16.31 477.57-14.89 476.67-13.48 476.67-11.52L476.67-11.52Q476.67-9.72 477.5-8.45 478.33-7.18 479.6-6.37 480.87-5.57 482.45-5.2 484.04-4.83 485.6-4.83ZM533.45 0.59L524.42 0.59Q525.25 0.34 525.44-0.51 525.64-1.37 525.69-2.05L525.69-2.05Q523.49-1.37 521.24-1.03 519-0.68 516.75-0.68L516.75-0.68Q515.29-0.68 513.26-0.93 511.23-1.17 509.4-1.86 507.57-2.54 506.28-3.76 504.98-4.98 504.98-6.98L504.98-6.98Q504.98-8.69 506.23-9.91 507.47-11.13 509.43-11.94 511.38-12.74 513.82-13.18 516.26-13.62 518.61-13.87 520.95-14.11 523-14.16 525.05-14.21 526.22-14.26L526.22-14.26Q526.22-14.94 526.25-15.58 526.27-16.21 526.27-16.89L526.27-16.89Q526.27-18.12 525.83-19.02 525.39-19.92 524.64-20.51 523.88-21.09 522.86-21.36 521.83-21.63 520.71-21.63L520.71-21.63Q519.63-21.63 518.39-21.34 517.14-21.04 516.02-20.46 514.9-19.87 514.07-18.97 513.24-18.07 513.04-16.89L513.04-16.89 506.89-17.72Q507.77-19.97 509.33-21.53 510.89-23.1 512.87-24.07 514.85-25.05 517.09-25.51 519.34-25.98 521.59-25.98L521.59-25.98Q523.73-25.98 525.76-25.44 527.79-24.9 529.37-23.8 530.96-22.71 531.91-21 532.87-19.29 532.87-16.94L532.87-16.94Q532.87-14.45 532.79-11.99 532.72-9.52 532.72-7.03L532.72-7.03Q532.72-6.59 532.72-5.44 532.72-4.3 532.79-3.05 532.87-1.81 533.01-0.76 533.16 0.29 533.45 0.59L533.45 0.59ZM511.62-6.98L511.62-6.98Q511.62-6.25 512.41-5.86 513.19-5.47 514.24-5.25 515.29-5.03 516.31-4.98 517.34-4.93 517.78-4.93L517.78-4.93Q519.83-4.93 521.93-5.22 524.03-5.52 525.98-6.15L525.98-6.15Q526.03-7.03 526.05-7.91 526.08-8.79 526.08-9.62L526.08-9.62 524.81-9.67Q524.37-9.67 523.22-9.64 522.07-9.62 520.61-9.55 519.14-9.47 517.56-9.3 515.97-9.13 514.65-8.84 513.33-8.54 512.48-8.08 511.62-7.62 511.62-6.98ZM540.24-4.93L540.24-4.93Q540.77-4.93 541.48-4.79 542.19-4.64 542.8-4.35 543.41-4.05 543.85-3.59 544.29-3.13 544.29-2.44L544.29-2.44Q544.29-1.76 543.85-1.29 543.41-0.83 542.8-0.54 542.19-0.24 541.48-0.1 540.77 0.05 540.24 0.05L540.24 0.05Q539.7 0.05 538.99-0.1 538.28-0.24 537.67-0.54 537.06-0.83 536.62-1.29 536.18-1.76 536.18-2.44L536.18-2.44Q536.18-3.13 536.62-3.59 537.06-4.05 537.67-4.35 538.28-4.64 538.99-4.79 539.7-4.93 540.24-4.93Z" opacity="1" transform="matrix(1,0,0,1,0,0)" fill="#000000" class="undefined-text-1" data-fill-palette-color="secondary" id="text-1"></path></svg></g></svg></g></svg></g></svg></g><g></g></svg></g></svg></g></svg></g><g mask="url(#26b273f2-e21c-4f29-bca6-0dbc13d55d4f)"><g transform="matrix(2.5068241555390856, 0, 0, 2.5068241555390856, 102.89425723054228, 0.9999999999999858)"><svg xmlns="http://www.w3.org/2000/svg" xmlns:xlink="http://www.w3.org/1999/xlink" version="1.1" x="0" y="0" viewBox="12.982999801635742 1 75.68599700927734 97.81300354003906" enable-background="new 0 0 100 100" xml:space="preserve" height="97.81300354003906" width="75.68599700927734" class="icon-none" data-fill-palette-color="accent" id="none"><g fill="#f3a83c" data-fill-palette-color="accent"><polygon fill-rule="evenodd" clip-rule="evenodd" points="12.983,10.59 30.001,98.813 24.129,39.764 53.15,37.872 53.096,27.989    64.549,1 53.622,18.977  " fill="#000000" data-fill-palette-color="accent"></polygon><polygon fill-rule="evenodd" clip-rule="evenodd" points="59.389,54.548 64.549,1.007 55.809,40.723 36.197,41.768 37.767,62.23    30.001,98.813 42.058,58.914  " fill="#000000" data-fill-palette-color="accent"></polygon><polygon fill-rule="evenodd" clip-rule="evenodd" points="62.8,67.182 63.349,56.729 47.37,60.484 47.338,72.281 30.001,98.813    51.681,71.197  " fill="#000000" data-fill-palette-color="accent"></polygon><polygon fill-rule="evenodd" clip-rule="evenodd" points="65.711,62.394 80.552,57.663 82.061,45.131 66.162,47.226  " fill="#000000" data-fill-palette-color="accent"></polygon><polygon fill-rule="evenodd" clip-rule="evenodd" points="72.07,44.502 83.058,43.085 84.639,32.807 76.56,32.434 64.549,1    72.979,31.967  " fill="#000000" data-fill-palette-color="accent"></polygon><polygon fill-rule="evenodd" clip-rule="evenodd" points="87.413,31.294 88.669,21.788 79.125,19.094 64.549,1 79.032,23.437    78.61,30.437  " fill="#000000" data-fill-palette-color="accent"></polygon></g></svg></g></g></svg></g><defs><mask id="cfda37f7-88e0-4fb9-a9ac-ba29d982373e"><rect width="640" height="400" fill="white"></rect><rect width="348.05760000000004" height="134.3685775529644" fill="black" x="145.97119999999998" y="132.81571122351778" id="transform-me" transform="matrix(1,0,0,1,-122.24000000000001,-76.4)"></rect></mask><mask id="f445707f-0610-4d4a-b050-6642a7f44269"><rect width="640" height="400" fill="white"></rect><rect width="348.05760000000004" height="134.3685775529644" fill="black" x="145.97119999999998" y="132.81571122351778" id="transform-me" transform="matrix(1,0,0,1,-122.24000000000001,-76.4)"></rect></mask><mask id="26b273f2-e21c-4f29-bca6-0dbc13d55d4f"><rect width="640" height="400" fill="white"></rect><rect width="348.05760000000004" height="125.26445033743003" fill="black" x="145.97119999999998" y="137.36777483128498" id="transform-me" transform="matrix(1,0,0,1,-122.24000000000001,-76.4)"></rect></mask></defs></svg><rect width="395.52" height="247.2" fill="none" stroke="none" visibility="hidden"></rect></g></svg></g></svg>